<?xml version="1.0" standalone="no"?>
<!DOCTYPE svg PUBLIC "-//W3C//DTD SVG 20010904//EN"
 "http://www.w3.org/TR/2001/REC-SVG-20010904/DTD/svg10.dtd">
<svg version="1.0" xmlns="http://www.w3.org/2000/svg"
 width="16.000000pt" height="16.000000pt" viewBox="0 0 16.000000 16.000000"
 preserveAspectRatio="xMidYMid meet">
<metadata>
Created by potrace 1.11, written by Peter Selinger 2001-2013
</metadata>
<g transform="translate(0.000000,16.000000) scale(0.000781,-0.000781)"
fill="#000000" stroke="none">
<path d="M10184 20463 c-11 -10 -55 -49 -99 -88 -44 -38 -82 -72 -85 -75 -3
-3 -41 -37 -84 -75 -44 -39 -87 -77 -96 -85 -9 -8 -49 -44 -90 -80 -40 -36
-78 -69 -84 -75 -6 -5 -49 -44 -96 -85 -47 -41 -101 -89 -120 -107 -19 -17
-44 -40 -56 -50 -28 -24 -161 -142 -190 -168 -23 -21 -96 -86 -269 -239 -55
-49 -116 -103 -135 -120 -19 -18 -93 -83 -165 -145 -71 -63 -134 -119 -140
-125 -5 -6 -66 -61 -135 -121 -69 -60 -130 -114 -136 -120 -18 -17 -151 -135
-291 -260 l-133 -117 0 -568 0 -568 -77 -68 c-67 -59 -124 -110 -167 -149 -6
-6 -65 -58 -131 -117 -66 -58 -433 -384 -815 -724 -382 -339 -726 -644 -764
-678 -38 -34 -74 -65 -80 -71 -6 -5 -49 -44 -96 -85 -47 -41 -90 -79 -96 -85
-27 -25 -147 -131 -154 -135 -23 -16 -26 -84 -25 -605 1 -384 -2 -563 -9 -570
-6 -5 -49 -44 -96 -85 -47 -41 -90 -79 -96 -85 -6 -5 -44 -39 -84 -75 -40 -36
-78 -69 -84 -75 -6 -5 -49 -44 -96 -85 -47 -41 -90 -79 -96 -85 -6 -5 -44 -39
-85 -75 -40 -36 -100 -89 -134 -119 -33 -30 -76 -68 -95 -85 -54 -47 -214
-190 -220 -196 -3 -3 -43 -39 -90 -80 -118 -104 -281 -249 -393 -349 -18 -16
-79 -70 -137 -121 -58 -51 -126 -112 -151 -134 -25 -23 -154 -137 -287 -255
l-242 -215 0 -1541 0 -1542 32 -28 c58 -51 282 -249 322 -285 57 -52 54 -49
146 -130 47 -41 87 -77 90 -80 10 -10 107 -96 180 -160 120 -105 272 -240 320
-284 25 -23 142 -127 260 -231 118 -104 220 -194 226 -200 15 -14 134 -120
309 -275 83 -73 166 -147 185 -164 19 -18 98 -88 175 -156 77 -68 143 -128
146 -132 3 -4 5 -261 4 -571 l-1 -562 51 -50 c56 -56 115 -110 225 -205 41
-36 77 -68 80 -71 3 -3 104 -92 225 -199 121 -106 225 -198 230 -204 6 -6 48
-45 95 -86 47 -41 87 -77 90 -80 3 -3 41 -36 85 -75 44 -38 82 -72 85 -75 3
-3 43 -39 90 -80 47 -41 87 -77 90 -80 3 -3 25 -23 50 -44 25 -21 68 -60 95
-85 28 -25 81 -73 119 -106 39 -33 79 -69 91 -80 11 -11 54 -50 95 -86 41 -36
195 -173 343 -303 l267 -237 0 -568 0 -569 77 -68 c70 -62 135 -120 167 -149
12 -11 344 -305 390 -345 15 -14 38 -34 50 -45 12 -11 58 -51 101 -90 43 -38
99 -88 124 -111 58 -52 305 -270 350 -309 19 -17 39 -35 45 -40 6 -6 54 -49
106 -95 52 -47 111 -99 130 -116 19 -17 228 -203 465 -413 451 -400 456 -404
501 -363 10 9 98 87 194 172 96 85 180 159 186 165 6 5 44 39 84 75 40 36 78
70 84 75 14 13 250 222 295 261 18 16 43 38 55 49 26 23 100 89 366 325 107
95 213 189 235 209 22 20 78 70 125 111 47 41 105 94 130 116 25 23 63 57 85
75 22 19 45 39 50 45 6 6 68 62 140 125 71 63 147 130 169 149 21 19 44 40 50
45 6 6 46 41 89 79 l77 68 0 568 0 568 173 153 c94 85 174 156 177 159 3 3 61
55 130 115 69 60 143 125 164 145 21 19 44 40 50 45 6 6 49 44 96 85 47 41
110 97 140 125 46 41 138 123 220 195 18 16 124 110 220 194 30 27 91 82 135
121 44 40 244 218 445 396 201 178 370 328 376 334 7 6 27 24 45 39 l33 28 0
574 c1 369 5 576 11 582 6 4 89 78 185 163 96 85 190 168 209 184 19 17 57 51
85 76 28 25 101 90 161 144 61 54 126 112 145 129 19 17 91 81 160 141 68 61
131 117 140 125 9 8 49 44 90 80 83 73 238 210 350 310 41 37 100 89 130 115
30 27 57 51 60 54 3 3 59 53 125 111 65 58 126 112 135 120 9 8 52 47 95 85
137 121 169 149 210 186 22 20 55 49 73 64 l32 27 0 1542 0 1543 -77 68 c-43
37 -112 98 -153 135 -41 37 -160 143 -265 236 -104 92 -192 171 -195 174 -3 3
-39 34 -80 70 -41 35 -77 67 -80 70 -3 3 -66 59 -140 125 -74 66 -140 124
-146 130 -6 5 -44 39 -85 75 -68 60 -235 209 -319 284 -19 17 -114 101 -210
186 -96 85 -177 157 -180 160 -4 4 -398 353 -455 402 -6 6 -10 212 -11 579 l0
571 -50 47 c-27 25 -87 80 -134 121 -47 41 -90 80 -96 85 -6 6 -44 39 -85 75
-40 36 -101 90 -134 120 -33 30 -94 85 -135 121 -41 36 -163 144 -270 239
-107 95 -211 186 -230 203 -29 25 -185 165 -226 202 -6 6 -39 35 -74 65 -35
30 -68 60 -74 65 -24 22 -206 184 -276 245 -40 36 -96 86 -124 111 -28 26 -94
84 -146 129 -52 46 -97 86 -100 89 -3 4 -60 55 -127 115 l-123 108 0 568 0
567 -77 69 c-42 38 -94 85 -116 104 -69 59 -332 293 -337 299 -3 3 -39 35 -80
71 -41 36 -97 85 -124 110 -63 58 -52 49 -191 170 -66 57 -122 107 -125 110
-3 3 -43 39 -90 80 -47 41 -87 77 -90 80 -3 3 -63 57 -135 120 -71 63 -135
119 -141 125 -6 5 -44 39 -84 75 -40 36 -78 70 -84 75 -6 6 -52 46 -101 90
-50 43 -97 86 -106 95 -9 8 -45 40 -79 70 -35 30 -154 135 -264 233 -181 161
-203 177 -236 177 -20 0 -45 -8 -56 -17z"/>
</g>
</svg>
