<svg id="Layer_1" xmlns="http://www.w3.org/2000/svg" viewBox="0 0 77.7 109.9"><style>.st0{fill:#3597d3;} .st1{fill:#2880b8;}</style><path class="st0" d="M13.1 55.3H0v-8.6L13.1 35z"/><path class="st0" d="M26 55.3H12.8V29.2L26 17.5z"/><path class="st0" d="M38.8 55.3H25.7V11.7L38.8 0z"/><path class="st1" d="M64.5 55.3h13.2v-8.6L64.5 35z"/><path class="st1" d="M51.7 55.3h13.1V29.2L51.7 17.5z"/><path class="st1" d="M38.8 55.3H52V11.7L38.8 0z"/><path class="st0" d="M13.1 54.6H0v8.6l13.1 11.7z"/><path class="st0" d="M26 54.6H12.8v26.1L26 92.4z"/><path class="st0" d="M38.8 54.6H25.7v43.6l13.1 11.7z"/><path class="st1" d="M64.5 54.6h13.2v8.6L64.5 74.9z"/><path class="st1" d="M51.7 54.6h13.1v26.1L51.7 92.4z"/><path class="st1" d="M38.8 54.6H52v43.6l-13.2 11.7z"/><circle class="st0" cx="38.8" cy="55.3" r="20.5"/><path class="st1" d="M38.8 75.8c-11.3 0-20.5-9.2-20.5-20.5s9.2-20.5 20.5-20.5"/><path class="st0" d="M38.8 80.5H25.7V51l13.1-11.7z"/><path class="st1" d="M38.8 30H52v29.5L38.8 71.2z"/><g><path class="st0" d="M13.1 55.3H0v-8.6L13.1 35z"/><path class="st0" d="M26 55.3H12.8V29.2L26 17.5z"/><path class="st0" d="M38.8 55.3H25.7V11.7L38.8 0z"/><path class="st1" d="M64.5 55.3h13.2v-8.6L64.5 35z"/><path class="st1" d="M51.7 55.3h13.1V29.2L51.7 17.5z"/><path class="st1" d="M38.8 55.3H52V11.7L38.8 0z"/><path class="st0" d="M13.1 54.6H0v8.6l13.1 11.7z"/><path class="st0" d="M26 54.6H12.8v26.1L26 92.4z"/><path class="st0" d="M38.8 54.6H25.7v43.6l13.1 11.7z"/><path class="st1" d="M64.5 54.6h13.2v8.6L64.5 74.9z"/><path class="st1" d="M51.7 54.6h13.1v26.1L51.7 92.4z"/><path class="st1" d="M38.8 54.6H52v43.6l-13.2 11.7z"/><circle class="st0" cx="38.8" cy="55.3" r="20.5"/><path class="st1" d="M38.8 75.8c-11.3 0-20.5-9.2-20.5-20.5s9.2-20.5 20.5-20.5"/><path class="st0" d="M38.8 80.5H25.7V51l13.1-11.7z"/><path class="st1" d="M38.8 30H52v29.5L38.8 71.2z"/></g></svg>
