<?xml version="1.0" encoding="iso-8859-1"?>
<!-- Generator: Adobe Illustrator 19.0.0, SVG Export Plug-In . SVG Version: 6.00 Build 0)  -->
<svg version="1.1" id="Layer_1" xmlns="http://www.w3.org/2000/svg" xmlns:xlink="http://www.w3.org/1999/xlink" x="0px" y="0px"
	 viewBox="0 0 512 512" style="enable-background:new 0 0 512 512;" xml:space="preserve">
<path style="fill:#ebf0f0;" d="M256,480c123.52,0,224-100.48,224-224S379.52,32,256,32S32,132.48,32,256S132.48,480,256,480z
	 M365.968,125.088l17.44,26.848l-47.984,31.136l47.968,31.12l-17.408,26.848l-89.344-57.968L365.968,125.088z M173.152,138.512
	c24.608,0,44.56,19.952,44.56,44.56s-19.952,44.56-44.56,44.56s-44.56-19.952-44.56-44.56S148.544,138.512,173.152,138.512z
	 M143.968,314.336c4.592,3.408,113.616,82.48,224.224,0L387.312,340c-43.552,32.48-87.232,43.312-126.112,43.312
	c-77.216,0-135.52-42.688-136.384-43.328L143.968,314.336z"/>
	<path style="fill:#2c3e50;" d="M256,512c141.392,0,256-114.608,256-256S397.392,0,256,0S0,114.608,0,256S114.608,512,256,512z
		 M256,32c123.52,0,224,100.48,224,224S379.52,480,256,480S32,379.52,32,256S132.48,32,256,32z"/>
	<path style="fill:#2c3e50;" d="M387.312,340l-19.12-25.664c-110.608,82.48-219.632,3.408-224.224,0l-19.152,25.648
		c0.88,0.64,59.168,43.328,136.384,43.328C300.08,383.312,343.776,372.48,387.312,340z"/>
	<circle style="fill:#2c3e50;" cx="173.152" cy="183.072" r="44.56"/>
	<polygon style="fill:#2c3e50;" points="383.392,214.208 335.424,183.072 383.408,151.936 365.968,125.088 276.64,183.072
		365.984,241.04 	"/>
</svg>
