<?xml version="1.0" encoding="iso-8859-1"?>
<!-- Generator: Adobe Illustrator 19.0.0, SVG Export Plug-In . SVG Version: 6.00 Build 0)  -->
<svg version="1.1" id="Layer_1" xmlns="http://www.w3.org/2000/svg" xmlns:xlink="http://www.w3.org/1999/xlink" x="0px" y="0px"
	 viewBox="0 0 512 512" style="enable-background:new 0 0 512 512;" xml:space="preserve">
<path style="fill:#ebf0f0;" d="M480,256c0-123.52-100.48-224-224-224S32,132.48,32,256s100.48,224,224,224S480,379.52,480,256z
	 M369.888,125.264l17.408,26.848l-47.968,31.12l47.984,31.136l-17.44,26.848l-89.328-57.984L369.888,125.264z M124.704,152.112
	l17.408-26.848l89.344,57.968l-89.328,57.984l-17.44-26.848l47.984-31.136L124.704,152.112z M368.208,380.592
	c-111.008-82.832-223.056-0.864-224.192-0.016l-19.184-25.632c1.312-0.96,132.496-96.992,262.496-0.016L368.208,380.592z"/>
	<path style="fill:#2c3e50;" d="M256,0C114.608,0,0,114.608,0,256s114.608,256,256,256s256-114.608,256-256S397.392,0,256,0z
		 M256,480C132.48,480,32,379.52,32,256S132.48,32,256,32s224,100.48,224,224S379.52,480,256,480z"/>
	<path style="fill:#2c3e50;" d="M124.832,354.96l19.184,25.632c1.12-0.848,113.168-82.816,224.192,0.016l19.12-25.664
		C257.328,257.968,126.144,354,124.832,354.96z"/>
	<polygon style="fill:#2c3e50;" points="142.128,241.216 231.456,183.232 142.112,125.264 124.704,152.112 172.672,183.232
		124.688,214.368 	"/>
	<polygon style="fill:#2c3e50;" points="387.296,214.368 339.312,183.232 387.28,152.112 369.888,125.264 280.544,183.232
		369.872,241.216 	"/>
</svg>
